<svg id="Layer_1" data-name="Layer 1" xmlns="http://www.w3.org/2000/svg" xmlns:xlink="http://www.w3.org/1999/xlink" viewBox="0 0 84.43 84.43"><defs><style>.cls-1{fill:none;}.cls-2{fill:url(#linear-gradient);}.cls-3{fill:#0c3256;opacity:0.42;}.cls-4{fill:url(#linear-gradient-2);}.cls-5{clip-path:url(#clip-path);}.cls-6{fill:url(#linear-gradient-3);}</style><linearGradient id="linear-gradient" x1="42.16" y1="72.88" x2="42.16" y2="34.87" gradientUnits="userSpaceOnUse"><stop offset="0" stop-color="#5ea4dd"/><stop offset="1" stop-color="#4e8cc9"/></linearGradient><linearGradient id="linear-gradient-2" x1="86.49" y1="36.2" x2="-24.53" y2="36.2" gradientUnits="userSpaceOnUse"><stop offset="0" stop-color="#f78100"/><stop offset="1" stop-color="#fff600"/></linearGradient><clipPath id="clip-path"><path class="cls-1" d="M-.11,25.92V57.73a16.31,16.31,0,0,0,1.65,7.18C3,68.22,7,71,8.43,71.56a11.21,11.21,0,0,0,4.17.8H71.72A11.3,11.3,0,0,0,74.64,72,13,13,0,0,0,76,71.51a10.64,10.64,0,0,0,3.66-2.37c.43-.45,1.9-2,2-2.15,1.75-2.08,2.73-6.79,2.74-9.26V19.1Z"/></clipPath><linearGradient id="linear-gradient-3" x1="43.29" y1="57.6" x2="43.29" y2="79.13" xlink:href="#linear-gradient"/></defs><title>Dyspatch Logo Favicon1800</title><path class="cls-2" d="M78,26.27c-4.14,3.63-10.9,7.44-14.76,9.39-1.24.51-4.94,2.06-6.14,2.47-.47.17-.93.32-1.39.47-.76.24-1.52.47-2.26.67a43.25,43.25,0,0,1-5,1.09v3.23l-9.17-3L44,51.42l-1.22,0c-.63,0-1.29-.08-2-.16s-1.4-.18-2.13-.3-1.38-.26-2.08-.41l-1-.23c-1.25-.29-2.52-.63-3.82-1A80.84,80.84,0,0,1,18.9,44.13c-.2-.1-4.89-2.7-5.09-2.8C9.07,38.46,3.61,31.12-.11,25.92V57.73a16.31,16.31,0,0,0,1.65,7.18C3,68.22,7,71,8.43,71.56a11.21,11.21,0,0,0,4.17.8H71.72A11.3,11.3,0,0,0,74.64,72,13,13,0,0,0,76,71.51a10.64,10.64,0,0,0,3.66-2.37c.43-.45,1.9-2,2-2.15,1.75-2.08,2.73-6.79,2.74-9.26V19.1A39,39,0,0,1,78,26.27Z"/><path class="cls-3" d="M-.11,25.92V57.73a16.31,16.31,0,0,0,1.65,7.18C3,68.22,7,71,8.43,71.56a11.21,11.21,0,0,0,4.17.8H71.72A11.3,11.3,0,0,0,74.64,72,13,13,0,0,0,76,71.51a10.64,10.64,0,0,0,3.66-2.37c.43-.45,1.9-2,2-2.15,1.75-2.08,2.73-6.79,2.74-9.26V19.1Z"/><path class="cls-4" d="M77.43,12.06H7.89c-4.42,0-8,4.13-8,9.21v9.17c0,8.92,9.12,16.93,19.54,22.4a70.06,70.06,0,0,0,19.89,7,28.92,28.92,0,0,0,4.68.45V47.63c4.17,0,9.88-1.4,15.7-3.86,9.43-4,20.14-10.77,24-18.83a11.23,11.23,0,0,0,.8-4.77,1.93,1.93,0,0,0,0-.33c-.21-3.61-1.52-5.83-3.83-7A7,7,0,0,0,77.43,12.06Z"/><g class="cls-5"><path class="cls-6" d="M77.35,82.15,84.5,70.69s-43.8-6.88-45.27-7.08c-.68-.1-1.38-.22-2.08-.34l-1-.2c-1.25-.24-2.53-.53-3.82-.85a89.34,89.34,0,0,1-12.85-4.3c-.21-.08-4.89-2.25-5.09-2.34L2.09,66.94C3.55,69.71,7.55,72,9,72.49a13.06,13.06,0,0,0,4.17.68H72.27a12.5,12.5,0,0,0,4.29-.72,10.8,10.8,0,0,0,3.66-2l2-1.79S78.93,82,77.35,82.15Z"/></g></svg>